<?xml version="1.0" encoding="utf-8"?>
<!-- Generator: Adobe Illustrator 24.1.1, SVG Export Plug-In . SVG Version: 6.00 Build 0)  -->
<svg version="1.1" id="Layer_1" xmlns="http://www.w3.org/2000/svg" xmlns:xlink="http://www.w3.org/1999/xlink" x="0px" y="0px"
	 viewBox="0 0 116.2 116.2" style="enable-background:new 0 0 116.2 116.2;" xml:space="preserve">
<style type="text/css">
	.st0{clip-path:url(#SVGID_2_);fill:none;stroke:#292E3A;stroke-width:8;stroke-miterlimit:10;}
</style>
<g>
	<defs>
		<rect id="SVGID_1_" x="11.4" y="0.6" width="93.5" height="114.9"/>
	</defs>
	<clipPath id="SVGID_2_">
		<use xlink:href="#SVGID_1_"  style="overflow:visible;"/>
	</clipPath>
	<path class="st0" d="M91.3,69.1V55.3V50c0-18.3-14.8-33.2-33.2-33.2C39.8,16.9,25,31.7,25,50v5.3v13.8l-9.9,13.8v13.8h86.1V82.8
		L91.3,69.1z"/>
	<path class="st0" d="M73.4,96.6c0,8.4-6.8,15.3-15.3,15.3S42.8,105,42.8,96.6"/>
	<path class="st0" d="M50.6,17.7v-5.9c0-4.2,3.4-7.5,7.5-7.5c4.2,0,7.5,3.4,7.5,7.5v5.9"/>
	<line class="st0" x1="15.1" y1="82.8" x2="69.2" y2="82.8"/>
</g>
</svg>
