<?xml version="1.0" encoding="utf-8"?>
<!-- Generator: Adobe Illustrator 24.1.1, SVG Export Plug-In . SVG Version: 6.00 Build 0)  -->
<svg version="1.1" id="Layer_1" xmlns="http://www.w3.org/2000/svg" xmlns:xlink="http://www.w3.org/1999/xlink" x="0px" y="0px"
	 viewBox="0 0 116.2 116.2" style="enable-background:new 0 0 116.2 116.2;" xml:space="preserve">
<style type="text/css">
	.st0{clip-path:url(#SVGID_2_);fill:none;stroke:#FFFFFF;stroke-width:8;stroke-miterlimit:10;}
	.st1{clip-path:url(#SVGID_2_);fill:#FFFFFF;}
</style>
<g>
	<defs>
		<rect id="SVGID_1_" y="2.9" width="116.2" height="110.5"/>
	</defs>
	<clipPath id="SVGID_2_">
		<use xlink:href="#SVGID_1_"  style="overflow:visible;"/>
	</clipPath>
	<line class="st0" x1="3.7" y1="44" x2="112.5" y2="44"/>
	<path class="st0" d="M24.2,30.2h-0.9c-2.6,0-4.7-2.1-4.7-4.7V11.3c0-2.6,2.1-4.7,4.7-4.7h0.9c2.6,0,4.7,2.1,4.7,4.7v14.2
		C28.9,28.1,26.8,30.2,24.2,30.2z"/>
	<path class="st0" d="M93,30.2H92c-2.6,0-4.7-2.1-4.7-4.7V11.3c0-2.6,2.1-4.7,4.7-4.7H93c2.6,0,4.7,2.1,4.7,4.7v14.2
		C97.7,28.1,95.6,30.2,93,30.2z"/>
	<line class="st0" x1="28.9" y1="20.2" x2="87.4" y2="20.2"/>
	<path class="st0" d="M97.7,20.2h10.1c2.6,0,4.7,2.1,4.7,4.7v80c0,2.6-2.1,4.7-4.7,4.7H8.4c-2.6,0-4.7-2.1-4.7-4.7v-80
		c0-2.6,2.1-4.7,4.7-4.7h10.1"/>
	<path class="st1" d="M26.9,70.5h-6.8c-1.6,0-2.8-1.3-2.8-2.8v-6.8c0-1.6,1.3-2.8,2.8-2.8h6.8c1.6,0,2.8,1.3,2.8,2.8v6.8
		C29.7,69.2,28.5,70.5,26.9,70.5"/>
	<path class="st1" d="M50,70.5h-6.8c-1.6,0-2.8-1.3-2.8-2.8v-6.8c0-1.6,1.3-2.8,2.8-2.8H50c1.6,0,2.8,1.3,2.8,2.8v6.8
		C52.8,69.2,51.5,70.5,50,70.5"/>
	<path class="st1" d="M73.1,70.5h-6.8c-1.6,0-2.8-1.3-2.8-2.8v-6.8c0-1.6,1.3-2.8,2.8-2.8h6.8c1.6,0,2.8,1.3,2.8,2.8v6.8
		C75.9,69.2,74.6,70.5,73.1,70.5"/>
	<path class="st1" d="M96.1,70.5h-6.8c-1.6,0-2.8-1.3-2.8-2.8v-6.8c0-1.6,1.3-2.8,2.8-2.8h6.8c1.6,0,2.8,1.3,2.8,2.8v6.8
		C99,69.2,97.7,70.5,96.1,70.5"/>
	<path class="st1" d="M26.9,95.1h-6.8c-1.6,0-2.8-1.3-2.8-2.8v-6.8c0-1.6,1.3-2.8,2.8-2.8h6.8c1.6,0,2.8,1.3,2.8,2.8v6.8
		C29.7,93.8,28.5,95.1,26.9,95.1"/>
	<path class="st1" d="M50,95.1h-6.8c-1.6,0-2.8-1.3-2.8-2.8v-6.8c0-1.6,1.3-2.8,2.8-2.8H50c1.6,0,2.8,1.3,2.8,2.8v6.8
		C52.8,93.8,51.5,95.1,50,95.1"/>
	<path class="st1" d="M73.1,95.1h-6.8c-1.6,0-2.8-1.3-2.8-2.8v-6.8c0-1.6,1.3-2.8,2.8-2.8h6.8c1.6,0,2.8,1.3,2.8,2.8v6.8
		C75.9,93.8,74.6,95.1,73.1,95.1"/>
	<path class="st1" d="M96.1,95.1h-6.8c-1.6,0-2.8-1.3-2.8-2.8v-6.8c0-1.6,1.3-2.8,2.8-2.8h6.8c1.6,0,2.8,1.3,2.8,2.8v6.8
		C99,93.8,97.7,95.1,96.1,95.1"/>
</g>
</svg>
