<?xml version="1.0" encoding="utf-8"?>
<!-- Generator: Adobe Illustrator 24.1.1, SVG Export Plug-In . SVG Version: 6.00 Build 0)  -->
<svg version="1.1" id="Layer_1" xmlns="http://www.w3.org/2000/svg" xmlns:xlink="http://www.w3.org/1999/xlink" x="0px" y="0px"
	 viewBox="0 0 23 23" style="enable-background:new 0 0 23 23;" xml:space="preserve">
<path d="M12.9,11.5l8.8-8.8c0.4-0.4,0.4-1,0-1.4s-1-0.4-1.4,0l-8.8,8.8L2.7,1.3c-0.4-0.4-1-0.4-1.4,0C1.1,1.4,1,1.7,1,2
	s0.1,0.5,0.3,0.7l8.8,8.8l-8.8,8.8c-0.4,0.4-0.4,1,0,1.4C1.4,21.9,1.7,22,2,22s0.5-0.1,0.7-0.3l8.8-8.8l8.8,8.8c0.4,0.4,1,0.4,1.4,0
	s0.4-1,0-1.4L12.9,11.5z"/>
</svg>
