<?xml version="1.0" encoding="utf-8"?>
<!-- Generator: Adobe Illustrator 24.1.1, SVG Export Plug-In . SVG Version: 6.00 Build 0)  -->
<svg version="1.1" id="Layer_1" xmlns="http://www.w3.org/2000/svg" xmlns:xlink="http://www.w3.org/1999/xlink" x="0px" y="0px"
	 viewBox="0 0 116.2 116.2" style="enable-background:new 0 0 116.2 116.2;" xml:space="preserve">
<style type="text/css">
	.st0{clip-path:url(#SVGID_2_);fill:none;stroke:#FFFFFF;stroke-width:8;stroke-miterlimit:10;}
</style>
<g>
	<defs>
		<rect id="SVGID_1_" x="0.4" width="115.5" height="116.2"/>
	</defs>
	<clipPath id="SVGID_2_">
		<use xlink:href="#SVGID_1_"  style="overflow:visible;"/>
	</clipPath>
	<path class="st0" d="M96.3,30.6c0,10.6-8.6,19.2-19.2,19.2s-19.2-8.6-19.2-19.2s8.6-19.2,19.2-19.2S96.3,20,96.3,30.6z"/>
	<path class="st0" d="M42.5,104.5V72.9c0-6.2,5-11.2,11.2-11.2h46.7c6.2,0,11.2,5,11.2,11.2v31.6"/>
	<path class="st0" d="M40.9,36.3c0,7.8-6.3,14.2-14.2,14.2c-7.8,0-14.2-6.3-14.2-14.2s6.3-14.2,14.2-14.2
		C34.5,22.1,40.9,28.5,40.9,36.3z"/>
	<path class="st0" d="M7.3,96.2V70.9c0-4.9,4-8.9,8.9-8.9h19.4"/>
</g>
</svg>
