<?xml version="1.0" encoding="utf-8"?>
<!-- Generator: Adobe Illustrator 24.1.1, SVG Export Plug-In . SVG Version: 6.00 Build 0)  -->
<svg version="1.1" id="Layer_1" xmlns="http://www.w3.org/2000/svg" xmlns:xlink="http://www.w3.org/1999/xlink" x="0px" y="0px"
	 viewBox="0 0 116.2 116.2" style="enable-background:new 0 0 116.2 116.2;" xml:space="preserve">
<style type="text/css">
	.st0{clip-path:url(#SVGID_2_);fill:none;stroke:#FFFFFF;stroke-width:8;stroke-miterlimit:10;}
</style>
<g>
	<defs>
		<rect id="SVGID_1_" x="0.9" y="0.9" width="114.3" height="114.3"/>
	</defs>
	<clipPath id="SVGID_2_">
		<use xlink:href="#SVGID_1_"  style="overflow:visible;"/>
	</clipPath>
	<path class="st0" d="M106.3,28.2H9.9c-2.8,0-5-2.2-5-5V9.9c0-2.8,2.2-5,5-5h96.3c2.8,0,5,2.2,5,5v13.3
		C111.3,26,109,28.2,106.3,28.2z"/>
	<path class="st0" d="M46.9,111.3H9.9c-2.8,0-5-2.2-5-5V46.7c0-2.8,2.2-5,5-5h36.9c2.8,0,5,2.2,5,5v59.6
		C51.9,109,49.7,111.3,46.9,111.3z"/>
	<path class="st0" d="M106.3,111.3H69.3c-2.8,0-5-2.2-5-5v-19c0-2.8,2.2-5,5-5h36.9c2.8,0,5,2.2,5,5v19
		C111.3,109,109,111.3,106.3,111.3z"/>
	<path class="st0" d="M106.3,70.7H69.3c-2.8,0-5-2.2-5-5v-19c0-2.8,2.2-5,5-5h36.9c2.8,0,5,2.2,5,5v19
		C111.3,68.5,109,70.7,106.3,70.7z"/>
</g>
</svg>
