<?xml version="1.0" encoding="utf-8"?>
<!-- Generator: Adobe Illustrator 24.1.1, SVG Export Plug-In . SVG Version: 6.00 Build 0)  -->
<svg version="1.1" id="Layer_1" xmlns="http://www.w3.org/2000/svg" xmlns:xlink="http://www.w3.org/1999/xlink" x="0px" y="0px"
	 viewBox="0 0 116.2 116.2" style="enable-background:new 0 0 116.2 116.2;" xml:space="preserve">
<style type="text/css">
	.st0{fill:none;stroke:#FFFFFF;stroke-width:8;stroke-miterlimit:10;}
	.st1{clip-path:url(#SVGID_2_);fill:none;stroke:#FFFFFF;stroke-width:8;stroke-miterlimit:10;}
	.st2{clip-path:url(#SVGID_4_);fill:none;stroke:#FFFFFF;stroke-width:8;stroke-miterlimit:10;}
</style>
<g>
	<g>
		<line class="st0" x1="17" y1="39.3" x2="78.6" y2="39.3"/>
		<line class="st0" x1="17" y1="39.3" x2="78.6" y2="39.3"/>
		<line class="st0" x1="17" y1="24.3" x2="78.6" y2="24.3"/>
		<line class="st0" x1="17" y1="55.3" x2="57.9" y2="55.3"/>
	</g>
	<g>
		<g>
			<defs>
				<rect id="SVGID_1_" y="0.3" width="116.2" height="115.7"/>
			</defs>
			<clipPath id="SVGID_2_">
				<use xlink:href="#SVGID_1_"  style="overflow:visible;"/>
			</clipPath>
			<path class="st1" d="M91.3,99.1H9.4c-2.9,0-5.2-2-5.2-4.5V8.4c0-2.5,2.3-4.5,5.2-4.5h81.9c2.9,0,5.2,2,5.2,4.5v86.2
				C96.5,97.1,94.2,99.1,91.3,99.1z"/>
		</g>
		<g>
			<defs>
				<rect id="SVGID_3_" y="0.3" width="116.2" height="115.7"/>
			</defs>
			<clipPath id="SVGID_4_">
				<use xlink:href="#SVGID_3_"  style="overflow:visible;"/>
			</clipPath>
			<path class="st2" d="M96.5,17.4h10.4c2.9,0,5.2,2,5.2,4.5v86.2c0,2.5-2.3,4.5-5.2,4.5H25c-2.9,0-5.2-2-5.2-4.5v-9"/>
		</g>
	</g>
</g>
</svg>
