<?xml version="1.0" encoding="utf-8"?>
<!-- Generator: Adobe Illustrator 24.1.1, SVG Export Plug-In . SVG Version: 6.00 Build 0)  -->
<svg version="1.1" id="Layer_1" xmlns="http://www.w3.org/2000/svg" xmlns:xlink="http://www.w3.org/1999/xlink" x="0px" y="0px"
	 viewBox="0 0 116.2 116.2" style="enable-background:new 0 0 116.2 116.2;" xml:space="preserve">
<style type="text/css">
	.st0{clip-path:url(#SVGID_2_);fill:none;stroke:#FFFFFF;stroke-width:8;stroke-linecap:round;stroke-miterlimit:10;}
</style>
<g>
	<defs>
		<rect id="SVGID_1_" x="-0.6" y="3.4" width="117.4" height="109.4"/>
	</defs>
	<clipPath id="SVGID_2_">
		<use xlink:href="#SVGID_1_"  style="overflow:visible;"/>
	</clipPath>
	<path class="st0" d="M56,72.8H22.6c-2.8,0-5-2.2-5-5V29.5c0-2.8,2.2-5,5-5H56V72.8z"/>
	<path class="st0" d="M17.6,62.4H8.4c-2.8,0-5-2.2-5-5V39.9c0-2.8,2.2-5,5-5h9.2V62.4z"/>
	<path class="st0" d="M105.7,89.5L70.5,72.8V24.5l35.2-16.6c3.3-1.6,7.1,0.9,7.1,4.5v72.5C112.8,88.6,109,91,105.7,89.5z"/>
	<rect x="56" y="24.5" class="st0" width="14.5" height="48.3"/>
	<path class="st0" d="M42.3,108.8h-5.9c-2.8,0-5-2.2-5-5v-31h15.9v31C47.3,106.6,45,108.8,42.3,108.8z"/>
</g>
</svg>
