<?xml version="1.0" encoding="utf-8"?>
<!-- Generator: Adobe Illustrator 24.1.1, SVG Export Plug-In . SVG Version: 6.00 Build 0)  -->
<svg version="1.1" id="Layer_1" xmlns="http://www.w3.org/2000/svg" xmlns:xlink="http://www.w3.org/1999/xlink" x="0px" y="0px"
	 viewBox="0 0 116.3 100" style="enable-background:new 0 0 116.3 100;" xml:space="preserve">
<style type="text/css">
	.st0{fill:#DCDCDC;}
</style>
<path class="st0" d="M53.4,98.3c-1.2,0-2.5-0.5-3.4-1.4L4,53.6c-1-0.9-1.6-2.3-1.6-3.6c0-1.4,0.6-2.7,1.6-3.6L50,3.1
	c2-1.9,5.2-1.8,7.1,0.2c1.9,2,1.8,5.2-0.2,7.1L14.7,50l42.1,39.7c2,1.9,2.1,5.1,0.2,7.1C56.1,97.8,54.8,98.3,53.4,98.3z"/>
<path class="st0" d="M99.5,98.3c-1.2,0-2.5-0.5-3.4-1.4l-46-43.3c-1-0.9-1.6-2.3-1.6-3.6c0-1.4,0.6-2.7,1.6-3.6l46-43.3
	c2-1.9,5.2-1.8,7.1,0.2c1.9,2,1.8,5.2-0.2,7.1L60.8,50l42.1,39.7c2,1.9,2.1,5.1,0.2,7.1C102.1,97.8,100.8,98.3,99.5,98.3z"/>
</svg>
