<?xml version="1.0" encoding="utf-8"?>
<!-- Generator: Adobe Illustrator 24.1.1, SVG Export Plug-In . SVG Version: 6.00 Build 0)  -->
<svg version="1.1" id="Layer_1" xmlns="http://www.w3.org/2000/svg" xmlns:xlink="http://www.w3.org/1999/xlink" x="0px" y="0px"
	 viewBox="0 0 116.3 100" style="enable-background:new 0 0 116.3 100;" xml:space="preserve">
<style type="text/css">
	.st0{fill:#DCDCDC;}
</style>
<path class="st0" d="M62.4,1.7c1.2,0,2.5,0.5,3.4,1.4l46,43.3c1,0.9,1.6,2.3,1.6,3.6c0,1.4-0.6,2.7-1.6,3.6l-46,43.3
	c-2,1.9-5.2,1.8-7.1-0.2c-1.9-2-1.8-5.2,0.2-7.1L101.1,50L59,10.3c-2-1.9-2.1-5.1-0.2-7.1C59.8,2.2,61.1,1.7,62.4,1.7z"/>
<path class="st0" d="M16.4,1.7c1.2,0,2.5,0.5,3.4,1.4l46,43.3c1,0.9,1.6,2.3,1.6,3.6c0,1.4-0.6,2.7-1.6,3.6l-46,43.3
	c-2,1.9-5.2,1.8-7.1-0.2c-1.9-2-1.8-5.2,0.2-7.1L55.1,50L12.9,10.3c-2-1.9-2.1-5.1-0.2-7.1C13.7,2.2,15,1.7,16.4,1.7z"/>
</svg>
