<?xml version="1.0" encoding="utf-8"?>
<!-- Generator: Adobe Illustrator 24.1.1, SVG Export Plug-In . SVG Version: 6.00 Build 0)  -->
<svg version="1.1" id="Layer_1" xmlns="http://www.w3.org/2000/svg" xmlns:xlink="http://www.w3.org/1999/xlink" x="0px" y="0px"
	 viewBox="0 0 116.2 116.2" style="enable-background:new 0 0 116.2 116.2;" xml:space="preserve">
<style type="text/css">
	.st0{clip-path:url(#SVGID_2_);fill:none;stroke:#FFFFFF;stroke-width:8;stroke-miterlimit:10;}
</style>
<g>
	<defs>
		<rect id="SVGID_1_" x="1.3" y="1.3" width="113.7" height="113.7"/>
	</defs>
	<clipPath id="SVGID_2_">
		<use xlink:href="#SVGID_1_"  style="overflow:visible;"/>
	</clipPath>
	<path class="st0" d="M107.2,43h-9c-0.3-0.9-0.7-1.7-1.1-2.5l6.4-6.4c1.6-1.6,1.6-4.2,0-5.9L88,12.7c-1.6-1.6-4.2-1.6-5.9,0
		l-6.4,6.4c-0.8-0.4-1.7-0.7-2.5-1.1V9c0-2.3-1.9-4.1-4.1-4.1H47.2C44.9,4.9,43,6.8,43,9v9c-0.9,0.3-1.7,0.7-2.5,1.1l-6.4-6.4
		c-1.6-1.6-4.2-1.6-5.9,0L12.7,28.2c-1.6,1.6-1.6,4.2,0,5.9l6.4,6.4c-0.4,0.8-0.7,1.7-1.1,2.5H9c-2.3,0-4.1,1.9-4.1,4.1v21.9
		c0,2.3,1.9,4.1,4.1,4.1h9c0.3,0.9,0.7,1.7,1.1,2.5l-6.4,6.4c-1.6,1.6-1.6,4.2,0,5.9l15.5,15.5c1.6,1.6,4.2,1.6,5.9,0l6.4-6.4
		c0.8,0.4,1.7,0.7,2.5,1.1v9c0,2.3,1.9,4.1,4.1,4.1h21.9c2.3,0,4.1-1.9,4.1-4.1v-9c0.9-0.3,1.7-0.7,2.5-1.1l6.4,6.4
		c1.6,1.6,4.2,1.6,5.9,0L103.5,88c1.6-1.6,1.6-4.2,0-5.9l-6.4-6.4c0.4-0.8,0.7-1.7,1.1-2.5h9c2.3,0,4.1-1.9,4.1-4.1V47.2
		C111.3,44.9,109.5,43,107.2,43z"/>
	<circle class="st0" cx="58.1" cy="58.1" r="14.7"/>
</g>
</svg>
