<?xml version="1.0" encoding="utf-8"?>
<!-- Generator: Adobe Illustrator 24.1.1, SVG Export Plug-In . SVG Version: 6.00 Build 0)  -->
<svg version="1.1" id="Layer_1" xmlns="http://www.w3.org/2000/svg" xmlns:xlink="http://www.w3.org/1999/xlink" x="0px" y="0px"
	 viewBox="0 0 116.2 116.2" style="enable-background:new 0 0 116.2 116.2;" xml:space="preserve">
<style type="text/css">
	.st0{clip-path:url(#SVGID_2_);fill:none;stroke:#FFFFFF;stroke-width:8;stroke-miterlimit:10;}
	.st1{clip-path:url(#SVGID_2_);fill:none;stroke:#FFFFFF;stroke-width:8;stroke-linecap:round;stroke-miterlimit:10;}
</style>
<g>
	<defs>
		<rect id="SVGID_1_" y="2.8" width="116.2" height="110.5"/>
	</defs>
	<clipPath id="SVGID_2_">
		<use xlink:href="#SVGID_1_"  style="overflow:visible;"/>
	</clipPath>
	<path class="st0" d="M25.9,109.8H6.3c-1.5,0-2.7-1.2-2.7-2.7V52c0-1.5,1.2-2.7,2.7-2.7h19.5c1.5,0,2.7,1.2,2.7,2.7v55.1
		C28.6,108.6,27.4,109.8,25.9,109.8z"/>
	<path class="st0" d="M67.9,109.8H48.3c-1.5,0-2.7-1.2-2.7-2.7V75.3c0-1.5,1.2-2.7,2.7-2.7h19.5c1.5,0,2.7,1.2,2.7,2.7v31.7
		C70.6,108.6,69.4,109.8,67.9,109.8z"/>
	<path class="st0" d="M109.9,109.8H90.3c-1.5,0-2.7-1.2-2.7-2.7V43.5c0-1.5,1.2-2.7,2.7-2.7h19.5c1.5,0,2.7,1.2,2.7,2.7v63.6
		C112.6,108.6,111.4,109.8,109.9,109.8z"/>
	<polyline class="st1" points="100.1,6.5 58.1,56.4 16.1,22.9 3.6,32.8 	"/>
	<polyline class="st1" points="83.4,6.5 101.8,6.5 101.8,24.9 	"/>
</g>
</svg>
