<?xml version="1.0" encoding="utf-8"?>
<!-- Generator: Adobe Illustrator 24.1.1, SVG Export Plug-In . SVG Version: 6.00 Build 0)  -->
<svg version="1.1" id="Layer_1" xmlns="http://www.w3.org/2000/svg" xmlns:xlink="http://www.w3.org/1999/xlink" x="0px" y="0px"
	 viewBox="0 0 116.2 116.2" style="enable-background:new 0 0 116.2 116.2;" xml:space="preserve">
<style type="text/css">
	.st0{fill:none;stroke:#FFFFFF;stroke-width:8;stroke-miterlimit:10;}
	.st1{clip-path:url(#SVGID_2_);fill:none;stroke:#FFFFFF;stroke-width:8;stroke-miterlimit:10;}
	.st2{clip-path:url(#SVGID_4_);fill:none;stroke:#FFFFFF;stroke-width:8;stroke-miterlimit:10;}
	.st3{clip-path:url(#SVGID_6_);fill:none;stroke:#FFFFFF;stroke-width:8;stroke-miterlimit:10;}
</style>
<g>
	<line class="st0" x1="19.7" y1="20.6" x2="74.7" y2="20.6"/>
	<line class="st0" x1="19.7" y1="37.8" x2="74.7" y2="37.8"/>
	<line class="st0" x1="19.7" y1="55" x2="47.1" y2="55"/>
	<g>
		<g>
			<defs>
				<rect id="SVGID_1_" x="3.7" y="0" width="108.8" height="116.1"/>
			</defs>
			<clipPath id="SVGID_2_">
				<use xlink:href="#SVGID_1_"  style="overflow:visible;"/>
			</clipPath>
			<path class="st1" d="M57.4,102.3H12c-2.6,0-4.6-2.1-4.6-4.6V8.4c0-2.6,2.1-4.6,4.6-4.6h72.8c2.6,0,4.6,2.1,4.6,4.6V57"/>
		</g>
		<g>
			<defs>
				<rect id="SVGID_3_" x="3.7" y="0" width="108.8" height="116.1"/>
			</defs>
			<clipPath id="SVGID_4_">
				<use xlink:href="#SVGID_3_"  style="overflow:visible;"/>
			</clipPath>
			<circle class="st2" cx="80.1" cy="83.8" r="28.7"/>
		</g>
		<g>
			<defs>
				<rect id="SVGID_5_" x="3.7" y="0" width="108.8" height="116.1"/>
			</defs>
			<clipPath id="SVGID_6_">
				<use xlink:href="#SVGID_5_"  style="overflow:visible;"/>
			</clipPath>
			<polyline class="st3" points="64.9,82.1 77.2,94.6 98.7,73.1 			"/>
		</g>
	</g>
</g>
<text transform="matrix(1 0 0 1 420.9448 297.6379)" style="font-family:'MyriadPro-Regular'; font-size:12px;">calendar</text>
</svg>
