<?xml version="1.0" encoding="utf-8"?>
<!-- Generator: Adobe Illustrator 24.1.1, SVG Export Plug-In . SVG Version: 6.00 Build 0)  -->
<svg version="1.1" id="Layer_1" xmlns="http://www.w3.org/2000/svg" xmlns:xlink="http://www.w3.org/1999/xlink" x="0px" y="0px"
	 viewBox="0 0 116.2 116.2" style="enable-background:new 0 0 116.2 116.2;" xml:space="preserve">
<style type="text/css">
	.st0{clip-path:url(#SVGID_2_);fill:none;stroke:#FFFFFF;stroke-width:8;stroke-miterlimit:10;}
</style>
<g>
	<defs>
		<rect id="SVGID_1_" x="1.1" y="0" width="114" height="116.2"/>
	</defs>
	<clipPath id="SVGID_2_">
		<use xlink:href="#SVGID_1_"  style="overflow:visible;"/>
	</clipPath>
	<ellipse class="st0" cx="83.5" cy="57.4" rx="15.4" ry="15.3"/>
	<path class="st0" d="M55.8,116.2V91.1c0-4.9,4-8.9,9-8.9h37.5c5,0,9,4,9,8.9v25.1"/>
	<path class="st0" d="M45,105.6H9.8c-2.7,0-4.8-2.1-4.8-4.8V8.6C5,6,7.1,3.8,9.8,3.8h76c2.7,0,4.8,2.1,4.8,4.8v20.9"/>
	<line class="st0" x1="19.6" y1="21.2" x2="76.7" y2="21.2"/>
	<line class="st0" x1="19.6" y1="39" x2="64.4" y2="39"/>
	<line class="st0" x1="19.6" y1="56.8" x2="54.7" y2="56.8"/>
</g>
</svg>
